<svg width="1920" height="1080" xmlns="http://www.w3.org/2000/svg">
  <defs>
    <!-- Circuit board background -->
    <pattern id="grid" width="40" height="40" patternUnits="userSpaceOnUse">
      <path d="M 40 0 L 0 0 0 40" fill="none" stroke="rgba(139, 92, 246, 0.2)" stroke-width="0.5"/>
    </pattern>

    <!-- Circuit traces pattern -->
    <pattern id="traces" width="120" height="120" patternUnits="userSpaceOnUse">
      <path d="M 0 30 L 30 30 L 30 60 L 60 60" fill="none" stroke="rgba(139, 92, 246, 0.4)" stroke-width="2"/>
      <path d="M 60 0 L 60 30 L 90 30 L 90 60" fill="none" stroke="rgba(139, 92, 246, 0.4)" stroke-width="2"/>
      <path d="M 0 90 L 30 90 L 30 120" fill="none" stroke="rgba(139, 92, 246, 0.4)" stroke-width="2"/>
      <circle cx="30" cy="30" r="3" fill="rgba(139, 92, 246, 0.6)"/>
      <circle cx="60" cy="60" r="3" fill="rgba(139, 92, 246, 0.6)"/>
      <circle cx="90" cy="30" r="3" fill="rgba(139, 92, 246, 0.6)"/>
    </pattern>

    <!-- Gradient for blend -->
    <linearGradient id="blend" x1="0%" y1="0%" x2="100%" y2="0%">
      <stop offset="0%" style="stop-color:rgba(252, 231, 243, 0.9);stop-opacity:1" />
      <stop offset="40%" style="stop-color:rgba(233, 213, 255, 0.7);stop-opacity:1" />
      <stop offset="60%" style="stop-color:rgba(221, 214, 254, 0.7);stop-opacity:1" />
      <stop offset="100%" style="stop-color:rgba(191, 219, 254, 0.9);stop-opacity:1" />
    </linearGradient>

    <!-- Radial gradient for reality side -->
    <radialGradient id="realityGlow" cx="10%" cy="50%">
      <stop offset="0%" style="stop-color:rgba(251, 207, 232, 0.5);stop-opacity:1" />
      <stop offset="50%" style="stop-color:rgba(236, 72, 153, 0.2);stop-opacity:1" />
      <stop offset="100%" style="stop-color:rgba(236, 72, 153, 0);stop-opacity:0" />
    </radialGradient>
  </defs>

  <!-- Base gradient background -->
  <rect width="1920" height="1080" fill="url(#blend)"/>

  <!-- Reality side glow (left) -->
  <ellipse cx="200" cy="540" rx="400" ry="600" fill="url(#realityGlow)" opacity="0.6"/>

  <!-- Circuit board pattern (right side) -->
  <rect x="960" y="0" width="960" height="1080" fill="url(#grid)"/>
  <rect x="960" y="0" width="960" height="1080" fill="url(#traces)"/>

  <!-- Glowing circuit nodes (right side) -->
  <circle cx="1600" cy="200" r="8" fill="rgba(139, 92, 246, 0.8)">
    <animate attributeName="opacity" values="0.6;1;0.6" dur="3s" repeatCount="indefinite"/>
  </circle>
  <circle cx="1600" cy="200" r="15" fill="rgba(139, 92, 246, 0.3)" opacity="0.5"/>

  <circle cx="1700" cy="450" r="6" fill="rgba(59, 130, 246, 0.8)">
    <animate attributeName="opacity" values="0.5;1;0.5" dur="4s" repeatCount="indefinite"/>
  </circle>
  <circle cx="1700" cy="450" r="12" fill="rgba(59, 130, 246, 0.3)" opacity="0.5"/>

  <circle cx="1500" cy="700" r="8" fill="rgba(139, 92, 246, 0.8)">
    <animate attributeName="opacity" values="0.7;1;0.7" dur="3.5s" repeatCount="indefinite"/>
  </circle>
  <circle cx="1500" cy="700" r="15" fill="rgba(139, 92, 246, 0.3)" opacity="0.5"/>

  <circle cx="1750" cy="900" r="6" fill="rgba(59, 130, 246, 0.8)">
    <animate attributeName="opacity" values="0.6;1;0.6" dur="4.5s" repeatCount="indefinite"/>
  </circle>
  <circle cx="1750" cy="900" r="12" fill="rgba(59, 130, 246, 0.3)" opacity="0.5"/>

  <!-- Organic flowing shapes (left side) -->
  <ellipse cx="300" cy="300" rx="150" ry="120" fill="rgba(251, 207, 232, 0.2)" opacity="0.7">
    <animate attributeName="ry" values="120;140;120" dur="5s" repeatCount="indefinite"/>
  </ellipse>

  <ellipse cx="400" cy="700" rx="180" ry="140" fill="rgba(236, 72, 153, 0.15)" opacity="0.7">
    <animate attributeName="rx" values="180;200;180" dur="6s" repeatCount="indefinite"/>
  </ellipse>

  <ellipse cx="200" cy="500" rx="120" ry="100" fill="rgba(219, 39, 119, 0.1)" opacity="0.6">
    <animate attributeName="ry" values="100;120;100" dur="5.5s" repeatCount="indefinite"/>
  </ellipse>
</svg>